# xmcd
#
# Track frame offsets:
#	150
#	9999
#	23088
#	34294
#	44394
#	57556
#	73461
#	88141
#	102173
#	116806
#	132684
#	147879
#	158149
#	170643
#	181803
#	194265
#	202676
#	214014
#	226409
#	234608
#	252965
#	266206
#	279202
#	291211
#	303649
#	316346
#
# Disc length: 4360 seconds
#
# Revision: 0
# Processed by: cddbd v1.5.2PL0 Copyright (c) Steve Scherf et al.
# Submitted via: audiograbber 1.83.01
#
DISCID=8811061a
DTITLE=Various Artist - Accordeon Collection CD1
DYEAR=1900
DGENRE=Country
TTITLE0=L'accordeoniste - Circus Renz
TTITLE1=L'accordeoniste - Kermiswalz
TTITLE2=L'accordeoniste - Amboss Polka
TTITLE3=L'accordeoniste - Ménilmontant
TTITLE4=L'accordeoniste - La Romance
TTITLE5=L'accordeoniste - La Cumparsita
TTITLE6=L'accordeonist - Hernando's Hideaway
TTITLE7=L'accordeoniste - La Paloma
TTITLE8=L'accordeoniste - Release Me
TTITLE9=L'accordeoniste - Aprés Toi
TTITLE10=L'accordeoniste - Het Spijt Me
TTITLE11=L'accordeoniste - L'accordén D'or
TTITLE12=L'accordeoniste - L'Homme Aux Doigts D'or
TTITLE13=L'accordeoniste - La Cravache
TTITLE14=L'accordeoniste - I Had To Be You
TTITLE15=L'accordeoniste - Twee Ogen Zo Blauw
TTITLE16=L'accordeoniste - Ik Schenk Je Een Boeketje Rode Rozen
TTITLE17=L'accordeoniste - Schabernack
TTITLE18=L'accordeoniste - Bourrasque
TTITLE19=L'accordeoniste - Montenegro
TTITLE20=L'accordeoniste - Melodia
TTITLE21=L'accordeoniste - Cavaquinho
TTITLE22=L'accordeoniste - Im Ganzemarch
TTITLE23=L'accordeoniste - Reine De Musette
TTITLE24=L'accordeoniste - Rozen Voor Sandra
TTITLE25=L'accordeoniste - Zonneschijn
EXTD=Label Hot Town 
EXTT0=
EXTT1=
EXTT2=
EXTT3=
EXTT4=
EXTT5=
EXTT6=
EXTT7=
EXTT8=
EXTT9=
EXTT10=
EXTT11=
EXTT12=
EXTT13=
EXTT14=
EXTT15=
EXTT16=
EXTT17=
EXTT18=
EXTT19=
EXTT20=
EXTT21=
EXTT22=
EXTT23=
EXTT24=
EXTT25=
PLAYORDER=
